<svg xmlns="http://www.w3.org/2000/svg" viewBox="0 0 490.667 490.667"><path d="M416 96a10.662 10.662 0 01-4.8-1.152c-22.933-11.541-87.829-41.515-112.533-41.515-18.821-3.175-37.205 7.618-43.605 25.6-2.631 5.271-9.037 7.411-14.308 4.779a10.666 10.666 0 01-5.148-13.483C245.25 44.43 271.334 28.618 298.667 32 332.8 32 411.904 71.339 420.8 75.819c5.255 2.663 7.356 9.082 4.693 14.336A10.666 10.666 0 01416 96z" fill="#ffc107"/><g fill="#ffd54f"><path d="M416 160c-5.891 0-10.667-4.776-10.667-10.667V128c0-5.891 4.776-10.667 10.667-10.667s10.667 4.776 10.667 10.667v21.333c0 5.891-4.776 10.667-10.667 10.667zM416 53.333c-5.891 0-10.667-4.776-10.667-10.667V21.333c0-5.891 4.776-10.667 10.667-10.667s10.667 4.776 10.667 10.667v21.333c0 5.892-4.776 10.667-10.667 10.667zM461.248 141.248a10.663 10.663 0 01-7.552-3.115l-15.083-15.083c-4.093-4.237-3.975-10.99.262-15.083a10.666 10.666 0 0114.821 0l15.083 15.083c4.171 4.16 4.179 10.914.019 15.085a10.667 10.667 0 01-7.571 3.134l.021-.021zM480 96h-21.333C452.776 96 448 91.224 448 85.333s4.776-10.667 10.667-10.667H480c5.891 0 10.667 4.776 10.667 10.667S485.891 96 480 96zM446.165 65.835a10.667 10.667 0 01-7.552-18.219l15.083-15.083c4.237-4.093 10.99-3.976 15.083.262a10.666 10.666 0 010 14.821l-15.083 15.083a10.67 10.67 0 01-7.531 3.136zM370.752 141.248a10.667 10.667 0 01-7.552-18.219l15.083-15.083c4.093-4.237 10.845-4.354 15.083-.262 4.237 4.093 4.354 10.845.262 15.083-.086.089-.173.176-.262.262l-15.083 15.083a10.666 10.666 0 01-7.531 3.136z"/></g><path d="M314.091 105.237A233.194 233.194 0 00181.333 64a10.665 10.665 0 00-10.133 7.296l-18.091 54.315a10.667 10.667 0 001.813 10.069 10.923 10.923 0 009.408 3.925 160.96 160.96 0 01115.989 33.515 10.667 10.667 0 006.613 2.283c4.311.003 8.2-2.59 9.856-6.571l21.12-50.731a10.665 10.665 0 00-3.817-12.864z" fill="#607d8b"/><path d="M181.333 117.333C81.186 117.333 0 198.519 0 298.667S81.186 480 181.333 480s181.333-81.186 181.333-181.333c-.117-100.099-81.234-181.216-181.333-181.334z" fill="#455a64"/><path d="M53.333 309.333c-5.891 0-10.667-4.776-10.667-10.667.095-76.544 62.123-138.572 138.667-138.666 5.891 0 10.667 4.776 10.667 10.667s-4.776 10.667-10.667 10.667C116.566 181.416 64.082 233.899 64 298.667c0 5.891-4.776 10.666-10.667 10.666z" fill="#607d8b"/></svg>