<svg xmlns="http://www.w3.org/2000/svg" viewBox="0 0 490.7 490.7"><path fill="#ffc107" d="M416 96c-1.7 0-3.3-.4-4.8-1.2-23-11.5-87.8-41.5-112.5-41.5A39.3 39.3 0 00255 79a10.7 10.7 0 01-19.5-8.7 59.5 59.5 0 0163-38.2c34.2 0 113.3 39.3 122.2 43.8A10.7 10.7 0 01416 96z"/><g fill="#ffd54f"><path d="M416 160c-5.9 0-10.7-4.8-10.7-10.7V128a10.7 10.7 0 0121.4 0v21.3c0 6-4.8 10.7-10.7 10.7zM416 53.3c-5.9 0-10.7-4.7-10.7-10.6V21.3a10.7 10.7 0 0121.4 0v21.4c0 5.9-4.8 10.6-10.7 10.6zM461.2 141.2c-2.8 0-5.5-1-7.5-3l-15-15.2a10.7 10.7 0 0115-15l15 15a10.7 10.7 0 01-7.5 18.3zM480 96h-21.3a10.7 10.7 0 010-21.3H480a10.7 10.7 0 010 21.3zM446.2 65.8a10.7 10.7 0 01-7.6-18.2l15.1-15a10.7 10.7 0 0115 15l-15 15.1c-2 2-4.7 3.1-7.5 3.1zM370.8 141.2a10.7 10.7 0 01-7.6-18.2l15-15a10.7 10.7 0 1115.2 15l-15.1 15.1c-2 2-4.7 3.1-7.5 3.1z"/></g><path fill="#607d8b" d="M314 105.2C275 78.3 228.8 64 181.4 64c-4.6 0-8.6 3-10.1 7.3l-18 54.3a10.7 10.7 0 0011.1 14 161 161 0 01116 33.5 10.7 10.7 0 0016.5-4.3l21.1-50.7c2-4.7.3-10-3.8-12.9z"/><path fill="#455a64" d="M181.3 117.3a181.3 181.3 0 100 362.7 181.3 181.3 0 000-362.7z"/><path fill="#607d8b" d="M53.3 309.3c-5.9 0-10.6-4.7-10.6-10.6A138.8 138.8 0 01181.3 160a10.7 10.7 0 010 21.3A117.5 117.5 0 0064 298.7c0 5.9-4.8 10.6-10.7 10.6z"/></svg>