<svg xmlns="http://www.w3.org/2000/svg" viewBox="0 0 512 512"><path fill="#fdfdfd" d="M365.5 309a133 133 0 01-95.8-38 115.5 115.5 0 00-83.2-32.6c-26-.4-51.5 7.8-72.5 23.3a15.4 15.4 0 01-21.2-2.2 18 18 0 01-4.5-12.3V48.3c0-4.9 2-9.5 5.4-13A134.6 134.6 0 01186.5 0c35.8-.7 70.4 13 96 38 22.1 21.6 52 33.3 83 32.6a123 123 0 0060.8-15.4c2.3-1.4 5-2.2 7.7-2.2a17 17 0 0116.2 17.6v200.9c.2 6-2.7 11.6-7.6 15-23 15-49.8 22.8-77.1 22.5z"/><path fill="#cbb292" d="M79.5 0C89.2 0 97 8 97 17.7v476.6a17.6 17.6 0 11-35.3 0V17.7C61.8 7.9 69.7 0 79.5 0z"/></svg>