<svg xmlns="http://www.w3.org/2000/svg" viewBox="0 0 512.004 512.004"><path d="M365.452 308.98a133.046 133.046 0 01-95.774-37.957 115.457 115.457 0 00-83.152-32.66 119.712 119.712 0 00-72.559 23.304 15.366 15.366 0 01-9.357 3.266 15.79 15.79 0 01-11.828-5.473 18.361 18.361 0 01-4.502-12.27V48.314c0-4.864 1.942-9.533 5.385-12.976A134.601 134.601 0 01186.526.029a133.115 133.115 0 0195.951 37.957 115.302 115.302 0 0082.975 32.66 123.061 123.061 0 0060.819-15.447 15.498 15.498 0 017.68-2.207c9.339.433 16.595 8.306 16.242 17.654v200.817a17.659 17.659 0 01-7.591 15.006 137.869 137.869 0 01-77.15 22.511z" fill="#fdfdfd"/><path d="M79.453.03c9.754 0 17.654 7.9 17.654 17.654v476.665c0 9.754-7.9 17.654-17.654 17.654s-17.654-7.9-17.654-17.654V17.684c0-9.745 7.9-17.654 17.654-17.654z" fill="#cbb292"/></svg>