<svg xmlns="http://www.w3.org/2000/svg" width="512" height="512" viewBox="0 0 512.2 512.2"><path fill="#fc0" d="M295.7 128.6v146.2L256.1 372l-39.6-18V128.6c0-6.9 5.9-12.4 13.2-12.4h52.8c7.3 0 13.2 5.5 13.2 12.4z"/><path fill="#ff8756" d="M295.7 128.6v146.2L256.1 372V116.2h26.4c7.3 0 13.2 5.5 13.2 12.4z"/><path fill="#554e56" d="M209.8 37.9v76a15 15 0 01-16.2 15c-48-3.8-141.2 24.8-170.2 44.2-12.9 8.7-29-5.8-21.5-19.6C49.1 67.3 160 27 193 23a15 15 0 0116.9 14.9z"/><path fill="#403b41" d="M488.7 173.1c-29-19.4-122-48-170-44.2a15 15 0 01-16.3-15V38c0-9 7.9-16 17-15 32.8 4.2 143.7 44.4 190.9 130.6 7.5 13.8-8.7 28.2-21.6 19.6z"/><path fill="#ff4a4a" d="M295.7 332.7v167c0 6.8-5.9 12.4-13.2 12.4h-52.8c-7.3 0-13.2-5.6-13.2-12.4V354l39.6-39.6z"/><path fill="#766d78" d="M332.4 122.6a30.4 30.4 0 01-30.6 30h-91.2a30.7 30.7 0 01-30.7-30.7l-.1-91A30.7 30.7 0 01210.4.2H256l45.6-.1c17 0 30.7 13.7 30.7 30.6v91.9z"/><path fill="#c73c50" d="M256.1 314.5l39.6-39.7v224.9c0 6.8-5.9 12.4-13.2 12.4h-26.4z"/><path fill="#554e56" d="M332.4 122.6a30.4 30.4 0 01-30.6 30H256V.1l45.6-.1c17 0 30.7 13.7 30.7 30.6v91.9z"/></svg>