<svg xmlns="http://www.w3.org/2000/svg" fill="#fff" viewBox="0 0 512 512"><path d="M490.7 405.3h-56.8c-9.3-30.7-37.5-53.3-71.2-53.3s-62 22.6-71.2 53.3H21.3a21.3 21.3 0 000 42.7h270.2c9.2 30.7 37.5 53.3 71.2 53.3s61.9-22.6 71.2-53.3h56.8a21.3 21.3 0 100-42.7zm-128 53.4a32 32 0 110-64.1 32 32 0 010 64zM490.7 64h-56.8c-9.3-30.7-37.5-53.3-71.2-53.3s-62 22.6-71.2 53.3H21.3a21.3 21.3 0 000 42.7h270.2c9.2 30.7 37.5 53.3 71.2 53.3s61.9-22.6 71.2-53.3h56.8a21.3 21.3 0 100-42.7zm-128 53.3a32 32 0 110-64 32 32 0 010 64zm128 117.4H220.5c-9.2-30.8-37.5-53.4-71.2-53.4S87.4 204 78.1 234.7H21.3a21.3 21.3 0 000 42.6h56.8c9.3 30.8 37.5 53.4 71.2 53.4s62-22.6 71.2-53.4h270.2a21.3 21.3 0 100-42.6zM149.3 288a32 32 0 11.1-64 32 32 0 010 64z"/></svg>